<?xml version="1.0" encoding="utf-8"?>
<!-- Generator: Adobe Illustrator 25.1.0, SVG Export Plug-In . SVG Version: 6.00 Build 0)  -->
<svg version="1.1" xmlns="http://www.w3.org/2000/svg" xmlns:xlink="http://www.w3.org/1999/xlink" x="0px" y="0px"
	 viewBox="0 0 230 130" style="enable-background:new 0 0 230 130;" xml:space="preserve">
<style type="text/css">
	.st0{fill:#FFFFFF;}
	.st1{fill:#0D2981;}
	.st2{fill:#AA8653;}
</style>
<g id="White_Background">
	<rect class="st0" width="230" height="131.5"/>
</g>
<g id="Trunck">
	<path class="st1" d="M47.9,26c0,0,1.6,2.1,2.1,3.6c0.5,1.6-1.6,11.2,0,12.6c1.3,1.2,0.7,3.7,0.1,5.8c-1,3.3-0.5,11.9,0,13.1
		c0.5,1.3,1.1,5.7,0,7.6s-0.5,11.2,0.6,13.8c1.1,2.5,0.5,7.7,0,9.3c-0.5,1.6,1.2,3.2,0.6,6c-0.6,2.8-0.4,5.5,0,6.9
		c0.3,1.3,0.7,2.9,1.2,6.1c1.1,1.1,3.2,2.2,2.1,3.8c-1.1,1.6,2.4,3.6-13.1,3.3c0,0-3.6-4-1.9-6.6c1.7-2.7,5.4-6.2,0.7-13.9
		c-1-1.7,0.3-6.2,1.6-7.1c2-1.5,1.4-17.4,1.4-17.4s-2.4-3.6,0.1-6c1.4-2.7,1.8-12.8,0-16c-1-2.4,1.2-5.4,1.2-5.4s0.8,0.2,0.8-7.1
		s-0.6-7.8-0.9-10.3c-0.2-0.8-0.2-2.1,0.9-2.2"/>
</g>
<g id="Roots">
	<path class="st1" d="M24.6,115c0,0,8.4,1.3,12,1.4c3.5-0.1,2.9,1,4.7,1.6c2.1,0.6,7.1,1.2,9.8,0c2-0.9,5.4-0.2,7.9-0.8
		c2.6-0.7,6.4-1,11-0.5c0.2-1.6-5.8-4.6-12.8-4.7c-4.9-1.1-5-2.2-5.3-3.5s-0.1-4.7-2.6-5.2s-7,0.9-7.3,3.3s-2,3.7-2.3,4.2
		c-0.4,0.5-3.7,0.1-5,1.2C33.7,113.1,29.9,113.9,24.6,115z"/>
</g>
<g id="Bottom_Left_Branch">
	<path class="st1" d="M42.1,90c-1.2,1.6-4.4,0.7-6.2,0s-8.8-3-11.3-3.3S15.8,87,14,88.4c-0.5,0.4,1.8,0,3.6-0.5
		c1.9-0.6,10.1-0.5,11.1,0.9c0.4,0.6,1.9,1.7-2.3,1.7s-6.6,3.1-7.5,3.7s-5.3,3.1-7.4,3.1c-1.1,0-1,1.3,2,0.4s6.5-3.1,6.7-3.3
		c0.1-0.1,5.9-4.7,11.1-2.7s6.7,3,7.1,3.5c0.4,0.4,1,1-2.7,1.1s-6,2.6-6.7,3.6s0.8,0.4,1.2,0c0.4-0.4,2.4-2.3,3.3-2.5
		c0.9-0.2,5.4-1.2,6.7,0s4.2,1.9,4.8,0.2c0.5-1.7,1.6-7.2,1.6-7.2l-1.8-2.6C44.8,87.9,43.3,88.4,42.1,90z"/>
</g>
<g id="_x33_rd_Highest_Left_Branch">
	<path class="st1" d="M43.5,66.2c-1.4,1.6-2.4,1.7-3.8,0.8c-1.4-0.8-4.2-4.1-5.3-5.6s-4.5-3.9-10.4-4.2c-0.8,0,0.4,0.6,4,1.5
		s5.6,3,6.3,3.9s2.9,3.1,1.5,3s-7.7-1.1-12.5,2.5c-3.6,2.6-5.7,3.2-12.1,3.6c-0.7,0-0.5,1,1.2,1.1c1.6,0.1,7.9-1.4,11.7-3.6
		s13.8-3.6,17.4,1.2c1,0.9,1.7,2,1.8,3.7c0,1.7,4.2,0.8,4.2,0.8s-0.2-9.4-0.4-9.4S44.6,65.1,43.5,66.2z"/>
</g>
<g id="_x32_nd_Highest_Left_Branch">
	<path class="st1" d="M43.2,51c0,0-1.4-3.1-3.3-4.8s-4.6-3.6-9.2-2.9c-1,0.1-1.1,1.4-4.9,3.1c-3.8,1.7-7.7,2.6-9.5,2.4
		c-0.8-0.2,0-0.4,0.8-0.4s6.4-1.5,8.4-2.7s3.6-2.3,0.2-2c-3.4,0.4-10.8,1.1-14.5-4.3c-0.4-0.4,1,0.3,2,1.4s4.1,3,8.5,2.6
		s7.4-2,11.8-1.4c1.8,0.3,6.1,1.4,1.2-2.1c-3.1-2.5-3.3-3.5-9.4-4c-0.6,0,0.1-0.6,1.8-0.4c1.7,0.1,6.4,1.4,10.8,5.4s5.4,6.4,5.9,5.5
		s2.9,1.2,2,2.9C45.1,51.1,44.9,52.6,43.2,51z"/>
</g>
<g id="Top_Left_Branch_1_">
	<g id="Top_Left_Branch">
		<path class="st1" d="M45.1,32c0,0,0.2-2.9-4.3-6.6c-2.3-1.4-2.8-3.5-7.7-1.9s-7.7,2.7-13.9,1c-1.1-0.3,0.4-0.6,1.7-0.2
			c1.3,0.4,7.7,0.6,13.4-2.2c0.9-0.5,1.8-1.8-4.3-2.4c-3.2-0.2-6,0.7-12.4-3.6c-0.9-0.7,0.7-0.6,2,0.4s2.8,2.6,12,2.2
			c1.6,0,2.8,1,3.6,1.4s1.4,0-0.3-1.9c-1.8-1.9-4.8-3.7-5.7-4.2c-0.8-0.4,0.2-0.5,0.8-0.3c0.5,0.2,6.6,4.7,7.6,6.2
			c1,1.4,4,5.2,6,6.1c0.9,0.3,1.2-0.1,1.3-0.2c0.1-0.2,1.2,1.3,1.2,1.3S47.7,31.3,45.1,32z"/>
	</g>
</g>
<g id="Lowest_Right_Branch_1_">
	<path class="st1" d="M50.4,81.6c0.6,1.2,2,2.7,5.9,1.8s9.9-1.9,11.3-1.7s9.5,1.1,11.2,2.3c1.6,1.2,4.9,5.3,5.2,7
		c0.3,1.7-0.8-0.3-0.9-0.7c-0.2-0.5-3.6-5.8-6.5-6.3s-1.7,1.1-1.4,1.3c0.3,0.2,4.5,3,6.2,7.6c0.3,0.8-0.6,0.2-1-0.7
		c-0.4-0.9-6.1-6.9-7.9-7.6s-4.3-2.2-12-0.7c-1.9,0.4-3,1.4-1.4,1.9c1.6,0.6,4.8,2.3,5.5,4.5c0.6,2.2,3.4,7.6,6.4,9.1
		c1.7,1.1,3.2,2.6,1,1.7c-2.2-0.8-7.1-6.6-8.2-9s-5.1-5.9-7.6-5.2s-4.6,3-5.2,4.2s-2,3.8-2,3.8l-3.5-6l-0.9-7.4
		C44.7,81.6,49.2,79.2,50.4,81.6z"/>
</g>
<g id="_x32_nd_Lowest_Right_Branch_1_">
	<path class="st1" d="M49.8,59.8c0.3,1.5,1,2.3,3.2,1.7s4.2-0.8,5.4-1.7s7.2-6.6,8.3-7c1.2-0.4,6.9-1.5,7.7-1.5c0.8,0,0.2,0.8-1,0.9
		c-1.3,0.1-4.7,0.6-5.9,1.1s-4.5,3.4-4.9,3.9c-0.4,0.4-2.9,2.3-0.3,2.8s6.2-0.4,8.4,2.1s3.1,5,9.7,5.1c1.9,0.1,2,0.9,0.8,0.9
		s-7.2-0.4-9-2.7s-5.7-4.1-8.4-3.8c-2.7,0.4-6.7,0.8-6.4,1.3c0.3,0.6,4.5,4,4.9,5.1s1,3.6,0.9,4.5c-0.2,0.9-0.7-0.4-0.7-1.3
		s0.3-2.3-3.2-5c-0.9-0.7-6.5-1.7-7.7,0.4s-1.8,2.6-1.9,3.5s-0.3,0.9-1.1,0.3s-1.7-11.3-1.7-11.3S49.6,58.4,49.8,59.8z"/>
</g>
<g id="_x32_nd_Highest_Right_Branch_1_">
	<path class="st1" d="M50.3,42.6c0.4,0.7,0.1,1.4,3.6-0.3s3.7-1.2,4.7-1.8s3.5-4.6,7.7-4.3s9.4,0.3,10.4,0.4c1,0.1-0.2,0.7-0.7,0.7
		s-8-0.2-9.2-0.2s-5.2,1.1-5.6,2.5s1.5,0.6,2.4,0.6s6.1,1.7,6.7,2s5.7,3.9,14.1-0.7c1.3-0.7,1.3,0.1,0.2,0.6
		c-1.1,0.5-6.9,3.7-11.3,2.6c-4.3-1.1-8.1-3.2-10.7-3.1s-6.1-0.1-9.8,2.9c-1.4,1.3-2.3,2-2.6,3.1s-2.1,2.3-2.3,1.1s-2.3-3.6-1.4-5.3
		S49.4,41.2,50.3,42.6z"/>
</g>
<g id="Top_Right_Branch_1_">
	<path class="st1" d="M48.5,26.9c0.6,1,1.2,1.8,4.3-0.3s8.6-5,11.8-5.2c3.2-0.1,11.4-1.1,14-5c0.6-0.7,0.6,1-0.7,2.1
		c-1.3,1.1-5.4,2.8-8.6,3.3S57.2,24.5,53,28.6s-2.8,3.1-3.4,5.4c-0.5,1.8-3.6,1.8-3.2-0.4s-0.3-5,0-6.1S48.1,26.2,48.5,26.9z"/>
</g>
<g id="Top_Branch_1_">
	<path class="st1" d="M44.5,26.3c0,0,0.8-0.7,1.2-5.7c0-2.5-0.8-6.3-4.6-9.1c-1-0.5,0.3-1.1,1.9,0.4s2.4,3,2.7,3.7s1.1,1.1,1.3-1.9
		c0.1-1.8-0.4-5.2,0-5.3C47.2,8.3,47.3,9,47.3,9l0.3,6.2c0,0-0.8,4.1,1.3,0.3c2-3.8,6.4-7.6,8-8.4c0.9-0.4,0.5,0.2-1.6,2.1
		s-6.3,6.5-7,9.5s-0.6,6.3,0.2,8C49.1,28.1,43.8,27.4,44.5,26.3z"/>
</g>
<g id="Leaves_1_">
	<path class="st2" d="M50,29.7c0,0-2.9-0.6-0.9-4.6C50.6,26.2,52.1,27.8,50,29.7z"/>
	<path class="st2" d="M50.7,24.2c0,0-0.7,4.7,2.1,4.2C54.2,25.7,52.7,25.2,50.7,24.2z"/>
	<path class="st2" d="M54.3,23.4c0,0-0.9,3.8,0.9,4.1S56.7,23.7,54.3,23.4z"/>
	<path class="st2" d="M57.7,27.3c0,0,1.9-3.5-1.4-4.5C55.2,24.3,56.2,26.9,57.7,27.3z"/>
	<path class="st2" d="M67,21.7c0,0-4.3-1.9-0.6-6.2C68.3,17.8,69.3,20.2,67,21.7z"/>
	<path class="st2" d="M68.8,15c0,0-1.9,4.9,1.3,5.7C71.3,19.9,72.8,18.2,68.8,15z"/>
	<path class="st2" d="M71,15c0,0-1.9,4.8,2.5,5.7C74.6,18.8,74.5,16.7,71,15z"/>
	<path class="st2" d="M72.9,14.3c0,0-0.6,4.3,3.6,4.7C77.1,17.3,77.5,15.7,72.9,14.3z"/>
	<path class="st2" d="M74.9,13.4c0,0,0.1,4.6,4.2,3.3C79.1,15.1,78.4,13.4,74.9,13.4z"/>
	<path class="st2" d="M76.9,12.3c0,0,3.6-1.1,4.2,1.7C79.5,14.3,77.4,14.8,76.9,12.3z"/>
	<path class="st2" d="M81.8,12.1c0,0,1.8-0.7,0.2-3.8C80.5,9.1,79.8,11.9,81.8,12.1z"/>
	<path class="st2" d="M81.6,12.9c0,0-0.8,3.3,4,1.2C85.4,12.3,83.8,10.8,81.6,12.9z"/>
	<path class="st2" d="M81.1,14c0,0-1.6,3,3.7,2.2C84.6,14.8,83.4,12.8,81.1,14z"/>
	<path class="st2" d="M83.6,19.5c0,0-0.7-4.9-4.5-2.8C79.1,18.3,80.1,20.3,83.6,19.5z"/>
	<path class="st2" d="M81.6,22.8c0,0,0-5.4-4.2-4.2C77.3,20.6,76.7,21.6,81.6,22.8z"/>
	<path class="st2" d="M78.7,25c0,0,1.6-6.9-3.8-5.1C73.9,21.6,74.1,23.6,78.7,25z"/>
	<path class="st2" d="M76,26.7c0,0,1.1-6-3.1-5.4C71.5,22.9,71.2,25.2,76,26.7z"/>
	<path class="st2" d="M72,27.5c0,0,1.3-6-1.9-6.8C68.4,22,68.4,25.1,72,27.5z"/>
	<path class="st2" d="M69,27.5c0,0,1.9-5.8-2-5.8C63.9,23.1,67.1,26.7,69,27.5z"/>
	<path class="st2" d="M54,34.9c0,0,0.5-4.3-3-4.1C50,32.5,50.7,33.2,54,34.9z"/>
	<path class="st2" d="M55.7,33.2c0,0,0.8-4.4-2.8-4.8C52.2,29.6,51,32,55.7,33.2z"/>
	<path class="st2" d="M57.4,32c0,0,1.5-4.6-1.5-4.1C54.9,29.4,54.1,30.2,57.4,32z"/>
	<path class="st2" d="M62.4,27.8c0,0-3-3.3-5-1.2C57.9,28.7,58.4,29.1,62.4,27.8z"/>
	<path class="st2" d="M62.8,37.9c0,0-4.8-0.2-2.1-5.9C63,33.7,64.2,35.3,62.8,37.9z"/>
	<path class="st2" d="M64.2,30.8c0,0-3.3,4.7,0.7,6.1C66.5,35.2,66.7,32.5,64.2,30.8z"/>
	<path class="st2" d="M68.3,30.3c0,0-3.9,2.8-0.7,5.9C69.3,34.6,70.9,32.8,68.3,30.3z"/>
	<path class="st2" d="M72.3,30.3c0,0-5,1.9-1.9,6.1C72.9,35.9,73.8,32.7,72.3,30.3z"/>
	<path class="st2" d="M76.1,30.8c0,0-4.9,1.7-3.2,5.7C74.8,36.5,77.3,35.3,76.1,30.8z"/>
	<path class="st2" d="M80.6,32.8c0,0-6.3,0.3-4.5,4.1C78.6,36.5,80.5,33.7,80.6,32.8z"/>
	<path class="st2" d="M82.3,36.4c0,0-3.6-1.6-5.3,0.5C77.9,38.5,80,38.3,82.3,36.4z"/>
	<path class="st2" d="M64.1,44.5c0,0,1.9-4.5-1.3-6.7C61.4,39.3,60.7,42.6,64.1,44.5z"/>
	<path class="st2" d="M67,43.3c0,0,2.3-5.4-2.1-6.4C62.8,39,64.2,42.3,67,43.3z"/>
	<path class="st2" d="M69.6,42.8c0,0,2.1-4.7-1.7-5.9C65.6,38.8,68,41.9,69.6,42.8z"/>
	<path class="st2" d="M72,42.8c0,0,1.1-6.1-1.7-6.4C69.5,37.8,69.3,41.6,72,42.8z"/>
	<path class="st2" d="M74.9,43.3c0,0,1.9-6.2-2-6.8C70.4,38.2,73.3,42.5,74.9,43.3z"/>
	<path class="st2" d="M77.3,42.8c0,0,2-5.5-1.2-5.9C74.1,38.5,75.9,41.8,77.3,42.8z"/>
	<path class="st2" d="M80.1,44.2c0,0-3.8-1.5,0-6.2C81.6,40,82.4,42.2,80.1,44.2z"/>
	<path class="st2" d="M83.6,42.8c0,0,2.1-2.8,0-5.9C81.1,38.4,81.3,42.9,83.6,42.8z"/>
	<path class="st2" d="M85.6,41.5c0,0,2.4-2.7,0-6.1C83.9,37.5,83.3,40.3,85.6,41.5z"/>
	<path class="st2" d="M81.3,49.3c0,0,2.8-4.9-1.1-6.6C78.3,43.8,78,47.5,81.3,49.3z"/>
	<path class="st2" d="M86.2,47.9c0,0,0.1-6.5-4.2-4.9C81.2,45,82.9,47.7,86.2,47.9z"/>
	<path class="st2" d="M89.8,45.7c0,0-1-5-4.7-3.9C84.4,44.5,86,45.3,89.8,45.7z"/>
	<path class="st2" d="M92.1,40.4c0,0-4.9-2.5-6.3,0.3C87.9,43.6,90.7,42,92.1,40.4z"/>
	<path class="st2" d="M62.4,56.9c0,0-5.1,0.1-3.7-5.8C60.4,51.3,64,53.6,62.4,56.9z"/>
	<path class="st2" d="M64.5,54.8c0,0-4.5-0.3-3.1-5.5C62.8,49.5,65.9,50.9,64.5,54.8z"/>
	<path class="st2" d="M66.6,53.2c0,0-3.9-0.6-1.5-5.9C67.7,48.5,68.3,51.9,66.6,53.2z"/>
	<path class="st2" d="M69.1,52.6c0,0,4.5-3,0-6.5C67.1,46.9,66,51.5,69.1,52.6z"/>
	<path class="st2" d="M71.9,52.1c0,0,4-1.5,1.1-6.3C70.9,46.9,69.6,50.7,71.9,52.1z"/>
	<path class="st2" d="M74.6,51.9c0,0,3.5,1.3,3-5.5C74.9,46.6,72.3,50.1,74.6,51.9z"/>
	<path class="st2" d="M62.4,56.9c0,0-1.2,4.3,3.4,5.5C66.4,59.7,65.8,56.7,62.4,56.9z"/>
	<path class="st2" d="M68,61c0,0,1.5-5.9-3.5-6.2C63.7,57,63.9,59.2,68,61z"/>
	<path class="st2" d="M70.5,59.2c0,0,0.6-7-3.9-6C64.7,56.1,68.6,58.3,70.5,59.2z"/>
	<path class="st2" d="M72.9,58.3c0,0,0.4-6.5-3.9-5.7C66.7,55,69.6,56.7,72.9,58.3z"/>
	<path class="st2" d="M75.5,57.9c0,0,1.7-6.9-3.6-5.8C70.7,54.1,72,56,75.5,57.9z"/>
	<path class="st2" d="M78.3,56.9c0,0,0.7-6.2-3.6-5C72.5,54.2,76.7,56.4,78.3,56.9z"/>
	<path class="st2" d="M81.2,53.1c0,0-1.1-3.9-5-2.3C75.5,52.8,79.4,53.7,81.2,53.1z"/>
	<path class="st2" d="M56.6,63.9c0,0,3.6,2.7-3.2,5.8C52.6,68.1,53.3,63.4,56.6,63.9z"/>
	<path class="st2" d="M55.3,70.2c0,0,5.4-0.5,4.4-4C56.8,65.6,55.6,68.2,55.3,70.2z"/>
	<path class="st2" d="M57.3,71.3c0,0,5.9-0.2,5-2.7C60.8,67.7,59.1,67.1,57.3,71.3z"/>
	<path class="st2" d="M58,72.9c0,0,3.9,1.6,4.8-1.1C62,70.6,60.2,69.5,58,72.9z"/>
	<path class="st2" d="M63.4,77.2c0,0,2.4-3.3-0.2-4.6C61.2,73.9,61.4,75.6,63.4,77.2z"/>
	<path class="st2" d="M67.5,72.9c0,0-2.6-3.8-4.8-1.1C63.4,73.8,64.8,73.9,67.5,72.9z"/>
	<path class="st2" d="M66.6,69.1c0,0-4-1.8-3.8,1.6C64.7,71.8,66.4,69.9,66.6,69.1z"/>
	<path class="st2" d="M66.1,66.1c0,0-4.8-0.4-3.9,2.5C63.9,70.5,66.2,66.6,66.1,66.1z"/>
	<path class="st2" d="M64.4,63c0,0-4.9-0.1-4.8,3.2C61.4,67,63.7,65.4,64.4,63z"/>
	<path class="st2" d="M60.6,60.1c0,0-4.5,1.1-3.1,3.8C59.5,65.1,61.4,62.1,60.6,60.1z"/>
	<path class="st2" d="M71.1,64.2c0,0-4.2-1.7-3.9,6C70.9,70.8,72.9,63.8,71.1,64.2z"/>
	<path class="st2" d="M72.4,65.3c0,0-4.2-0.2-2.5,6.9C73.2,72.6,74.2,64.6,72.4,65.3z"/>
	<path class="st2" d="M74.7,66.8c0,0-4,1.6-1,6.8C75.9,73.1,77.1,67,74.7,66.8z"/>
	<path class="st2" d="M77.4,67.1c0,0-4.4,1.5,0,7C79.9,72.6,79.3,66.7,77.4,67.1z"/>
	<path class="st2" d="M79.9,67.6c0,0-3.6,1.5,1.3,5.9C82.8,71.9,82,67,79.9,67.6z"/>
	<path class="st2" d="M84.4,72c0,0,1-5.8-2.4-4.9C80.4,69.2,82.2,71,84.4,72z"/>
	<path class="st2" d="M87.1,70.2c0,0-0.5-4.5-2.8-3.8C82.5,68.2,85.6,70.3,87.1,70.2z"/>
	<path class="st2" d="M89,68.7c0,0-0.4-4.2-3.4-3.2C84.4,67.8,87.8,68.4,89,68.7z"/>
	<path class="st2" d="M89.2,61.9c0,0-5.6,0.7-3.6,3.6C88.5,66.9,89.2,61.9,89.2,61.9z"/>
	<path class="st2" d="M82,62.1c0,0-0.8,3.4,2.8,4C86.4,64.3,83.9,61.7,82,62.1z"/>
	<path class="st2" d="M82,67.1c0,0,3.4-1.8-1.7-4.2C79.7,65,80,67.5,82,67.1z"/>
	<path class="st2" d="M79,67.6c0,0,3.4-1.3-0.4-5.2C77.4,63.2,77,66.8,79,67.6z"/>
	<path class="st2" d="M75.7,66.8c0,0,3.4-1,1-5.8C74.5,62.2,74.5,66.2,75.7,66.8z"/>
	<path class="st2" d="M74.9,59.7c0,0,0.2,6.9-2.5,5.6C71.2,63,71.4,61.9,74.9,59.7z"/>
	<path class="st2" d="M74.3,58.1c0,0-1.2,4.4-3.6,4.5S71.2,59.1,74.3,58.1z"/>
	<path class="st2" d="M69,82.2c0,0-3.9-1.2,0.5-6.7C71.2,78.1,71.7,81.5,69,82.2z"/>
	<path class="st2" d="M73.8,75.9c0,0-5.3,2.5-2.4,6.4C74.4,81.9,76,78.1,73.8,75.9z"/>
	<path class="st2" d="M77.2,76.6c0,0-6,2.6-3.5,6.3C76.4,83.4,79.1,78.7,77.2,76.6z"/>
	<path class="st2" d="M80.7,78c0,0-6,1.1-4.3,5.3C80,83.9,80.8,80,80.7,78z"/>
	<path class="st2" d="M84,79.9c0,0-6.4,0.5-4.9,4.5C80.8,85.4,83.7,81.8,84,79.9z"/>
	<path class="st2" d="M86.4,82.5c0,0-6.8-0.4-5.5,3.6C82.8,87.3,85.8,85.8,86.4,82.5z"/>
	<path class="st2" d="M87.9,85.3c0,0-6.6-1-5.6,3.2C84.9,90.1,87.9,86.2,87.9,85.3z"/>
	<path class="st2" d="M88.5,89.2c0,0-5.3-2.1-5.1,1.2C85,93.1,88.5,89.2,88.5,89.2z"/>
	<path class="st2" d="M88.5,93.2c0,0-3.1-3.6-4.7-1.9C83.3,92.9,86,93.8,88.5,93.2z"/>
	<path class="st2" d="M88.1,95.8c0,0-1.6-5-3.5-3.2C84.3,93.5,83.2,94.4,88.1,95.8z"/>
	<path class="st2" d="M82.8,98.9c0,0,3.5-3.2,0.8-4.3C81.7,95,82.6,98.3,82.8,98.9z"/>
	<path class="st2" d="M83.6,93.1c0,0-0.6-2.5-4.8,0.3C80.3,95.5,84.1,94.7,83.6,93.1z"/>
	<path class="st2" d="M83.2,90.6c0,0-0.7-3.2-4.3,1.3C81.4,92.8,84,91.6,83.2,90.6z"/>
	<path class="st2" d="M81.4,87.5c0,0-3.5-2.2-4.4,3C80.7,90.9,81.9,88.8,81.4,87.5z"/>
	<path class="st2" d="M79.7,85.9c0,0-4.2-2.2-4.3,3.4C77.2,89.7,81.3,87.6,79.7,85.9z"/>
	<path class="st2" d="M76.3,83.8c0,0-4-0.2-3.3,5.3C77,88.2,78.6,84.9,76.3,83.8z"/>
	<path class="st2" d="M72.9,83.4c0,0-3.9-1.4-1.9,5.7C74.1,86.2,74.5,83.7,72.9,83.4z"/>
	<path class="st2" d="M69.4,82.6c0,0-3.9-0.4-0.3,6.4C70.7,88,72.8,82.8,69.4,82.6z"/>
	<path class="st2" d="M64.8,92.7c0,0-1.6-4,5.2-3.2C69.9,91.2,67.7,94.2,64.8,92.7z"/>
	<path class="st2" d="M71.8,91.3c0,0-6.2,0.5-5.5,3.8C69.3,95.9,71.7,92.5,71.8,91.3z"/>
	<path class="st2" d="M73.5,93.4c0,0-6.8,0-5.4,3.9C71.5,98.6,73.5,93.9,73.5,93.4z"/>
	<path class="st2" d="M75.1,95.2c0,0-5.3-0.4-5.3,3.8C71.5,99.8,74.4,98.7,75.1,95.2z"/>
	<path class="st2" d="M77.3,96.7c0,0-6,0.3-5.7,3.7C75,101,77,100.4,77.3,96.7z"/>
	<path class="st2" d="M79.4,98.7c0,0-6.3-1.3-6,2.5C78.2,102.8,78.7,100.8,79.4,98.7z"/>
	<path class="st2" d="M80.5,104.7c0,0-3.2-4.8-6.1-2.4C71.6,104.6,79,106.4,80.5,104.7z"/>
	<path class="st2" d="M74.9,108c0,0,0.9-5.6-1.5-5.8C71.7,103,72.2,105.8,74.9,108z"/>
	<path class="st2" d="M69.8,107.1c0,0,4.7-3,2-6.2C69.3,100.2,68.8,105.7,69.8,107.1z"/>
	<path class="st2" d="M66.4,105.1c0,0,6-3.1,3.4-6C67.7,98.1,65.8,101.9,66.4,105.1z"/>
	<path class="st2" d="M63.4,102.4c0,0,5.4-1.8,4.3-5.1C66.4,96.4,62.9,97.8,63.4,102.4z"/>
	<path class="st2" d="M61.1,99.7c0,0,5.6-0.2,5.1-4.6C64.2,94,61,97.1,61.1,99.7z"/>
	<path class="st2" d="M59.2,96.3c0,0,6.1,2,5.6-3.6C62.3,91.3,59.8,93.7,59.2,96.3z"/>
	<path class="st2" d="M33.4,16.5c0,0,4,2.3,2.8-5.3C33.9,11.9,32,15.8,33.4,16.5z"/>
	<path class="st2" d="M31.8,15.2c0,0,4.3,0,1.2-6.4C31.2,10.1,30.1,13.9,31.8,15.2z"/>
	<path class="st2" d="M29.6,14c0,0,4.5-2.7-1-6.3C26.7,11,28.6,13.9,29.6,14z"/>
	<path class="st2" d="M23.4,9.5c0,0,7,0.4,4.8,4.2C26.1,13.9,25.5,14.6,23.4,9.5z"/>
	<path class="st2" d="M24.5,17.7c0,0,6.4-0.4,4.2-3.8C26.4,13.7,27,12.5,24.5,17.7z"/>
	<path class="st2" d="M31,14.9c0,0,3.6,2.6-3.7,4.2C26.6,15.8,29.3,14.9,31,14.9z"/>
	<path class="st2" d="M18.9,24.3c0,0,3.2-3.3-5.6-2.5C14.5,25.5,18.3,25.2,18.9,24.3z"/>
	<path class="st2" d="M18.7,23.8c0,0-3.7-0.3-1.5-5.6C20.8,19.5,19.9,24.2,18.7,23.8z"/>
	<path class="st2" d="M20.9,24.1c0,0-3.6-0.5-1.1-5.9C22.5,19.2,23,23.8,20.9,24.1z"/>
	<path class="st2" d="M23.1,18.5c0,0-2.6,4.5,0.5,5.8C26.2,23.4,24.8,19.4,23.1,18.5z"/>
	<path class="st2" d="M25.5,18.9c0,0-2.1,5,1.5,5.7C29.5,23.2,26.6,19,25.5,18.9z"/>
	<path class="st2" d="M28.2,19.1c0,0-2.3,4.4,1.7,4.9C31.4,22.9,30.3,19.5,28.2,19.1z"/>
	<path class="st2" d="M31,18.9c0,0-2.4,4.3,1.6,4.5C33.8,21.7,32.8,19.4,31,18.9z"/>
	<path class="st2" d="M20,24.3c0,0,2,3.2-4.5,4.4C15.3,26.5,16.3,24.3,20,24.3z"/>
	<path class="st2" d="M21.7,24.9c0,0,3.3,3-2.6,5.3C18.6,28.4,18.9,25.1,21.7,24.9z"/>
	<path class="st2" d="M24.3,24.9c0,0-3.9,1.8,0.3,5.5C26.1,29.2,27.4,24.8,24.3,24.9z"/>
	<path class="st2" d="M28.6,30.2c0,0-4.5-2.7-1.6-5.7C29.1,25.3,30.6,26.2,28.6,30.2z"/>
	<path class="st2" d="M31.1,29.6c0,0-4.3-2.4-1.3-5.6C32,24.8,32.7,26.5,31.1,29.6z"/>
	<path class="st2" d="M32.5,23.3c0,0,2.9-0.6,2.3,5.4C32.9,28.7,30.2,25.5,32.5,23.3z"/>
	<path class="st2" d="M26.2,35.8c0,0-4,0.4-3.5-5.4C26.2,31.6,27,34.3,26.2,35.8z"/>
	<path class="st2" d="M28,36c0,0-4.3-0.4-1.1-6.4C28.8,31.1,30.3,34.2,28,36z"/>
	<path class="st2" d="M32.3,30.1c0,0-5,2.2-2.2,6.3C32.9,36.1,33,31.7,32.3,30.1z"/>
	<path class="st2" d="M34.9,31.3c0,0-4.7,2.4-2.2,6.2C34.9,37.9,36.4,33.8,34.9,31.3z"/>
	<path class="st2" d="M38.5,32.9c0,0-5.4,0.8-3.3,5.8C36.7,39.1,39.6,37.7,38.5,32.9z"/>
	<path class="st2" d="M41.5,34.9c0,0-5.4,0.3-4.5,5.5C40,40.4,41.1,37,41.5,34.9z"/>
	<path class="st2" d="M18.5,35.6c0,0,5.6-3.1,6.6,0.3C23,37.7,20,36.3,18.5,35.6z"/>
	<path class="st2" d="M25.4,35.9c0,0,0.8,2.6-2.9,3.7C21.7,37.1,24.2,35.3,25.4,35.9z"/>
	<path class="st2" d="M27,35.8c0,0,2.8,2.9-3.1,5.5C22.9,38.5,25.3,36.1,27,35.8z"/>
	<path class="st2" d="M29.4,36.4c0,0,2.9,2.6-2.2,5.2C26.5,39.8,26.9,36.9,29.4,36.4z"/>
	<path class="st2" d="M31.9,37.3c0,0,3.3,2.9-2.2,5.5C29,39.9,28.7,37.8,31.9,37.3z"/>
	<path class="st2" d="M34.5,38.6c0,0,3,3.6-2.4,5.6C31.8,41.1,31.3,39,34.5,38.6z"/>
	<path class="st2" d="M36.9,40.7c0,0,3.6,2.9-3.1,5.6C33.4,44.2,34,40.4,36.9,40.7z"/>
	<path class="st2" d="M19.6,43.8c0,0,4.6-1.6,1.8-5.4C18.7,39.5,18.4,43.3,19.6,43.8z"/>
	<path class="st2" d="M16.2,42.9c0,0,4.5-0.7,3.2-5.2C17,37.9,15.2,41.3,16.2,42.9z"/>
	<path class="st2" d="M13.3,41.4c0,0,4.7,0.4,4-4.1C15.2,37.1,12.8,39.3,13.3,41.4z"/>
	<path class="st2" d="M11.2,39.5c0,0,4.1,0.6,4.3-3.5C13.4,36.2,10.7,36.9,11.2,39.5z"/>
	<path class="st2" d="M10,36.7c0,0,2.9,2.2,4.7-2.1C13.1,33.9,9.3,33.7,10,36.7z"/>
	<path class="st2" d="M10.5,35.5c0,0,3-2.2-1.6-5.1C6.2,31.6,8,36.2,10.5,35.5z"/>
	<path class="st2" d="M5,35.8c0,0,3.7-3.5,5.5,0C8.7,37.4,7,37.3,5,35.8z"/>
	<path class="st2" d="M10.5,36.6c0,0,2.9,1.7-4.7,2.4C6.2,37.1,8.9,35.7,10.5,36.6z"/>
	<path class="st2" d="M11.7,38.8c0,0,2.4,2.9-4.9,3.1C6.8,40.8,8.4,36.6,11.7,38.8z"/>
	<path class="st2" d="M13.7,40.7c0,0,2.2,3.9-4.9,4.1C8.9,43.7,8.8,40.1,13.7,40.7z"/>
	<path class="st2" d="M15,42.7c0,0,1.4,4-4.3,4.6C10.5,46.1,11.1,42.5,15,42.7z"/>
	<path class="st2" d="M17.1,43.3c0,0,2,4.6-3.1,5.8C13.4,47.7,14.2,43.5,17.1,43.3z"/>
	<path class="st2" d="M19.6,43.8c0,0,3.2,4.9-1.9,6.4C16.8,49.4,16.3,45.8,19.6,43.8z"/>
	<path class="st2" d="M21.9,43.8c0,0,4.4,2.4,1.3,6.2C22.4,49.6,18.5,47.6,21.9,43.8z"/>
	<path class="st2" d="M34.2,62.1c0,0,4.3,1.5,4-5.7C36.1,56.8,33.2,60.2,34.2,62.1z"/>
	<path class="st2" d="M32.1,59.9c0,0,5.2,1.3,3.5-5.8C33.5,54.6,31.3,56.5,32.1,59.9z"/>
	<path class="st2" d="M30,58.9c0,0,3.9,0.1,2-6.9C30.2,53.7,27.7,56.7,30,58.9z"/>
	<path class="st2" d="M27.4,58.1c0,0,4.3-0.8,0.5-7.2C25.4,53.3,25.8,57.5,27.4,58.1z"/>
	<path class="st2" d="M25.1,57.6c0,0,4.2-1.8-1.3-7C22.3,52.2,22.6,57.2,25.1,57.6z"/>
	<path class="st2" d="M18.9,51.2c0,0,6.9,3.3,4.8,6.1C22,57.9,17.6,53.9,18.9,51.2z"/>
	<path class="st2" d="M15.1,57.8c0,0,5.1,3.2,6.7-0.5C20.6,55.1,17.7,55.1,15.1,57.8z"/>
	<path class="st2" d="M18.4,62.2c0,0,5-0.7,5.2-4.1C21.5,57.3,18.9,58.1,18.4,62.2z"/>
	<path class="st2" d="M21.4,62.9c0,0,5-2.6,3.2-5.1C21.9,57.7,20.9,61.1,21.4,62.9z"/>
	<path class="st2" d="M23.9,63.9c0,0,4.7-3.9,3.5-5.8C25.4,57.9,23.3,59.9,23.9,63.9z"/>
	<path class="st2" d="M26.1,64.3c0,0,5.2-1.7,3.9-5.5C28.1,58.6,25.5,60.2,26.1,64.3z"/>
	<path class="st2" d="M28.8,65.6c0,0,4.9-2.6,3.3-5.7C29.9,59.5,28.1,63.4,28.8,65.6z"/>
	<path class="st2" d="M31.3,67.7c0,0,4.5-2.6,2.9-5.6C32.5,62,30.1,62.3,31.3,67.7z"/>
	<path class="st2" d="M23.1,69c0,0,1.9-4.1-3.1-5.8C19.4,65.6,20.4,68.8,23.1,69z"/>
	<path class="st2" d="M20.5,70.5c0,0,2.3-3.7-2.8-5.7C15.7,66.9,19.1,70.9,20.5,70.5z"/>
	<path class="st2" d="M17.9,71.4c0,0,2.4-3.2-2.5-5.8C14.2,66.8,15.1,71.6,17.9,71.4z"/>
	<path class="st2" d="M14.9,71.9c0,0,3.2-3-2-6.2C11.2,67.3,12.9,71,14.9,71.9z"/>
	<path class="st2" d="M12.5,72.2c0,0,2.6-2.6-2.5-6.4C8,68.9,12,72.1,12.5,72.2z"/>
	<path class="st2" d="M10.5,71.9c0,0,1.2-3.2-3.2-5.8C6.6,68,6.9,71.2,10.5,71.9z"/>
	<path class="st2" d="M9.7,72.3c0,0-0.6-3.9-5.8-2.1C4.2,72.3,7.7,74,9.7,72.3z"/>
	<path class="st2" d="M10.5,71.9c0,0,3.4,3.2-4.3,5.2C5.7,74.4,7.6,71.9,10.5,71.9z"/>
	<path class="st2" d="M12.5,72.2c0,0,3.8,2.4-2.3,6.4C9.4,77.1,11.4,72.5,12.5,72.2z"/>
	<path class="st2" d="M14.9,71.9c0,0,4.3,2.6-0.3,6.1C13.6,77.1,11.8,73,14.9,71.9z"/>
	<path class="st2" d="M17.9,71.4c0,0,3.4,1.4,1.1,6.6C17.8,77.3,15.7,74.1,17.9,71.4z"/>
	<path class="st2" d="M20.5,70.5c0,0,3.5,0.4,2.1,6.3C21.1,76.5,18.9,73.9,20.5,70.5z"/>
	<path class="st2" d="M23.1,69c0,0,3.8,0.6,2.6,6.4C24.3,75.1,21,72.4,23.1,69z"/>
	<path class="st2" d="M26.6,87.6c0,0,3.6-0.1,1.9-6.4C27.6,81.6,24.3,85,26.6,87.6z"/>
	<path class="st2" d="M24.3,87.2c0,0,3.7-2.6,0.3-6.9C23.2,81.3,22,85.9,24.3,87.2z"/>
	<path class="st2" d="M21.6,87.2c0,0,4.1-2.9-0.6-7.2C19.2,81.7,19.1,85.7,21.6,87.2z"/>
	<path class="st2" d="M19.4,87.2c0,0,3.3-3.6-2-6.8C16,82.6,17.3,86.4,19.4,87.2z"/>
	<path class="st2" d="M16.7,87.6c0,0,2-4.2-3.3-6C13,83.7,15,87.5,16.7,87.6z"/>
	<path class="st2" d="M14.2,88.2c0,0-0.1-3.4-4-5C9.9,85.5,11.5,88,14.2,88.2z"/>
	<path class="st2" d="M12.2,89.7c0,0,0.7-3-3.8-3.4C8.4,88.2,9.9,90.3,12.2,89.7z"/>
	<path class="st2" d="M10.3,91.4c0,0,0.5-3-3.7-2.4C6.5,90.8,9.6,92.3,10.3,91.4z"/>
	<path class="st2" d="M9.3,93.3c0,0-0.1-2.6-3.7-1.4C5.8,92.7,8.3,95.2,9.3,93.3z"/>
	<path class="st2" d="M8.8,95.6c0,0-0.5-2.8-3.9-1.2C5.8,96,8.3,96.9,8.8,95.6z"/>
	<path class="st2" d="M9.5,95.9c0,0-2.3-0.2-1.5,3.8C11.1,98.4,9.8,96.3,9.5,95.9z"/>
	<path class="st2" d="M9.4,93.9c0,0-0.5,3.4,4.2,2C13,94.4,11.5,92.9,9.4,93.9z"/>
	<path class="st2" d="M10.3,91.4c0,0-0.1,3.5,4.1,2.6C14.1,92.4,12,90.2,10.3,91.4z"/>
	<path class="st2" d="M16.4,93.2c0,0-0.8-4.4-3.7-3.3C12.7,91.5,14.2,93.3,16.4,93.2z"/>
	<path class="st2" d="M18,92.4c0,0,0.2-4.2-2.5-4.1C15,89.3,15,91.8,18,92.4z"/>
	<path class="st2" d="M20.4,92.4c0,0,2.1-4.1-1-5.2C17.9,88,18.6,91.5,20.4,92.4z"/>
	<path class="st2" d="M22.6,92.6c0,0,2.2-4,0.1-5.4C21.3,87.9,20.9,91.5,22.6,92.6z"/>
	<path class="st2" d="M24.9,93.8c0,0,3.2-2.8,1.8-5.8C25.1,88.5,22.8,90.9,24.9,93.8z"/>
	<path class="st2" d="M34.3,96.9c0,0,1.5-3.2-0.8-5C32.5,92.8,31.9,95.6,34.3,96.9z"/>
	<path class="st2" d="M32.6,97.5c0,0,1.2-3.5-4.6-3.9C27.2,94.9,30.6,98.7,32.6,97.5z"/>
	<path class="st2" d="M30.3,99.5c0,0,0.8-4.2-4.9-3.2C25,97.7,28.2,100.7,30.3,99.5z"/>
	<path class="st2" d="M29.3,100.4c0,0,2.2,3.4-2.6,4.7C26,103.3,27.4,100.2,29.3,100.4z"/>
	<path class="st2" d="M30.2,99.8c0,0,3.9-1.2,1.9,5.4C29.6,102.9,28.8,101.1,30.2,99.8z"/>
	<path class="st2" d="M32,98.2c0,0,3.7,0.1,2.3,5.7C32.6,103,30.7,99.9,32,98.2z"/>
	<path class="st2" d="M34.6,96.9c0,0,3.9,1,2.2,6C34.9,101.8,32.4,100.2,34.6,96.9z"/>
	<path class="st2" d="M37.3,96.5c0,0-1.5,3.6,1.8,5.3C40.5,98.8,38.9,96.2,37.3,96.5z"/>
</g>
<g id="Top_Branch_Leaves_1_">
	<path class="st2" d="M45.2,15.7c0,0,2.3,3-3.9,3.3c-0.3,0,0.5-2.1,1.7-2.8C44.1,15.6,45.2,15.7,45.2,15.7z"/>
	<path class="st2" d="M41.6,11.9c0,0-4-0.3-4.7,3.4c0,0.6,1.8,0,2.5-0.2C40.2,14.9,42.8,12,41.6,11.9z"/>
	<path class="st2" d="M43.7,14.2c0,0,1.9,3.2-4.7,3.5C39.6,15.3,39.9,13.5,43.7,14.2z"/>
	<path class="st2" d="M38.4,10.1c0,0-3.5,0.9-3.9-4.2C36.1,6,39.7,8.1,38.4,10.1z"/>
	<path class="st2" d="M42.2,11.8c0,0-2.6-2.1,1.8-5.5C45,7.3,46.4,11.5,42.2,11.8z"/>
	<path class="st2" d="M39.6,10.5c0,0,1.6,3-4.1,2.3C36.2,10.9,37.5,9.9,39.6,10.5z"/>
	<path class="st2" d="M44,13.4c0,0,4.5,0.1,4-4.3C45.5,9.1,43.1,10.4,44,13.4z"/>
	<path class="st2" d="M39.6,10.5c0,0-2.8-1.6,0.2-5.6C42.2,7,41.9,10.9,39.6,10.5z"/>
	<path class="st2" d="M52.4,11.2c0,0-4.5,1.5-4.4-4.6C50.5,7.1,52.9,8.3,52.4,11.2z"/>
	<path class="st2" d="M54.3,9.7c0,0-4.4,1.1-2.7-5.6C53.1,5,55.3,6.7,54.3,9.7z"/>
	<path class="st2" d="M56.1,8.1c0,0-3.8-1-0.3-5.5C57.3,3.9,57.3,6.4,56.1,8.1z"/>
	<path class="st2" d="M57.7,7.7c0,0,1.5-3.7,5.5,0C61.5,8.7,60.3,9.7,57.7,7.7z"/>
	<path class="st2" d="M56.1,8.1c0,0,4.6-0.9,5.3,3.6C58.4,12.1,56.1,11,56.1,8.1z"/>
	<path class="st2" d="M54.3,9.7c0,0,4.3-1.3,5,3.8C56.7,13.4,54.4,12.7,54.3,9.7z"/>
	<path class="st2" d="M52.4,11.2c0,0,4.3-0.3,5,4.3C54.4,15.5,52.3,15,52.4,11.2z"/>
	<path class="st2" d="M50.8,13.4c0,0,3.7-2.6,4.4,3.7C52.9,17.4,50.2,16.4,50.8,13.4z"/>
</g>
<g id="Hebrew_7">
	<path class="st2" d="M199.1,108.4c0,0,0.7,1.1,0.9,1.6s1.4,1.6,3.9,1.2s5.6-1.1,6.9,0.4c0.2,0.4,0.5,1.2,0.6,2
		c0.1,0.6,0.2,1.1-0.5,1.5c-1.5,0.8-4.4,0.7-5.5,0.4c-1.2-0.3-4.7-0.9-5.7,0.2s-0.5,1.4,1,0.8s4.7,0,6.2,0.3s6.2,0.1,6.6-0.4
		c0.5-0.5,0.9-1.7-0.3-1.5c-1.2,0.1-1.8-3.5-1.8-3.5s0.5-1.3-0.4-1.8c-0.8-0.5-1.3-0.7-3.1-0.3s-5.1,0.9-6.4,0
		C200.5,108.4,198.8,107.8,199.1,108.4z"/>
</g>
<g id="Hebrew_6">
	<path class="st2" d="M188.5,108.1c0,0,0,2.7,0.9,2.4c0.9-0.4,2.8-0.8,3.5,0.6c0.5,0.7,0.8-1.1,0.4-1.5s-2.6-0.7-3-0.4
		c-0.4,0.2-1.5,0.1-1.5-0.4C188.9,108.3,188.7,107.5,188.5,108.1z"/>
	<path class="st2" d="M193.1,111.8c0,0,1.3,2.1,0.3,2.7s-4.2-1.1-5.8,2.1c-0.4,0.6,0.9,0,1.3-0.2c0.4-0.3,2.4-1,3.7-0.6
		c1.5,0.1,1.7-1.4,1.7-1.8s-0.4-1.3-0.4-1.3s-0.5-1.2-0.7-1.1C193.1,111.7,193.1,111.8,193.1,111.8z"/>
</g>
<g id="Hebrew_5">
	<path class="st2" d="M177.2,107.5c0,0,1.1,1.5,2.8,1.3s3.9,1.2,2.9,4.3c-0.3,1-0.9-0.4-0.7-1s-0.4-1.8-1.3-1.6
		c-0.9,0.2-2.7,0.1-3.4-1.1c0,0-0.8-0.7-0.7-1.1C176.8,108.1,176.5,107.3,177.2,107.5z"/>
</g>
<g id="Hebrew_4">
	<path class="st2" d="M152.3,107.6c0,0,0,1.4,4.6,1.2c4.6-0.2,9.3-1.3,9.7,0.7c0.5,2,0.3,2.9,1.2,4.4c0.9,1.6,0.2,3.5-0.3,3.2
		c-0.5-0.4-1.4-1.5-1.4-2c0-0.6,0.5-2.1,0.2-3s-0.7-2.6-2-2.3c-1.3,0.3-7.4,1-8.8,0.6c-1.1-0.3-1.6-0.1-1.6,0.3s0,1.8,0.5,2.7
		s1.2,2.6-0.3,2.7s-3.6,0.8-2-1.1c0.8-0.7,1.8-0.8,1.5-2.4s-0.6-2.3-1.1-2.7C152.2,109.5,151.9,107.1,152.3,107.6z"/>
</g>
<g id="Hebrew_3">
	<path class="st2" d="M140.2,107.8c0,0-0.8,2.2,0.7,2.4c1.5,0.1,4.5-0.1,4.9,0.8s0.1,2.2,0,3.4c-0.1,1.1,0.2,1.8,0.8,1.8
		s1.1-1.6,0.9-2.2c-0.2-0.6-0.9-1.1-1-1.9s0.6-2.6-0.2-3.3s-1.9-0.1-3-0.2C142,108.3,140.8,107.2,140.2,107.8z"/>
</g>
<g id="Hebrew_2">
	<path class="st2" d="M121.9,106.8c0,0-0.5,3,1.1,3.1c1.5,0,5.7-0.4,6.8-0.5c1.2-0.1,3.9-0.1,4.2,1.6s-0.1,3.3,0,4.2
		c0.1,0.9,0.5,1.6,0.9,1.6s1.2-0.9,1.3-2.3s-1.1-1.8-1.3-3.2s1.2-4-2.3-3.6s-5.9,0.5-7.5,0.3c-1.5-0.2-1.7-1.2-2.3-1.4
		S121.9,106.8,121.9,106.8z"/>
</g>
<g id="Hebrew_1">
	<path class="st2" d="M101.5,106.4c0,0,1,1.9,7.4,1.3s7.8,0,7.8,2s0.3,3.4,0.6,4c0.3,0.6,0,2.1-0.6,2.1c-0.7-0.1-0.8-1.7-0.7-2.1
		c0.1-0.4,0.7-3.8-0.2-4.1c-0.9-0.3-7.5,1.5-12.6-0.3c-2-0.7-3-2.5-2.7-2.8C101,105.9,101.5,106.4,101.5,106.4z"/>
	<path class="st2" d="M102,110.9c0,0,0.3,1.7,0.3,2.2s-0.4,1.8-0.3,2.2c0.1,0.4,1,0.6,1.4-0.4c0.4-1.1,0.7-2.4,0.3-3.1
		C103.2,111.2,102.2,109.7,102,110.9z"/>
</g>
<g id="H_1_">
	<path class="st1" d="M191,76.1h9.6c0,0-2.4,0.4-2.4,1.5s0,8.3,0,8.3h8v-8.4c0,0-0.8-1.4-2.7-1.4c3.8,0,10.5,0,10.5,0
		s-2.9,0.4-3,1.5c0,1.1,0,17.8,0,17.8s0.8,1.6,3,1.6c-2.2,0-10.2,0-10.2,0s2.5-0.6,2.6-1.5c0-0.9,0-8.9,0-8.9h-8.2v9
		c0,0,0.8,1.5,2.3,1.5c-1,0-9.4,0-9.4,0s2.5-0.5,2.5-1.5s0-18,0-18S193.1,76.5,191,76.1z"/>
</g>
<g id="A_3_">
	<path class="st1" d="M176.9,76.1h2.4l8,19.7c0,0,0.6,1.1,1.6,1.2c-1.5,0-9.6,0-9.6,0s2.7-0.8,2.3-1.5s-2.2-6.2-2.2-6.2h-6.5
		l-2.2,5.3c0,0-0.1,2.2,3.5,2.4c-4.3-0.1-6.7,0-6.7,0s1.1-0.1,2.2-2C170.8,93,176.9,76.1,176.9,76.1z"/>
	<g id="Layer_38">
		<polygon class="st0" points="179.2,88.6 173.1,88.6 176.4,79.8 		"/>
	</g>
</g>
<g id="R_1_">
	<path class="st1" d="M146.2,76.1h13.3c0,0,4.3,0.6,4.2,4.8c-0.1,4.2-2.1,5.8-5.9,6c2.5,0.3,4.7,1.7,5.2,4.3c0.5,2.6,0.2,6,3.6,4.4
		c-0.5,1.2-2.7,2.5-5.9,1.4s-2.2-4.6-2.1-5.4c0.1-1-0.3-4-1.9-4.2c-1.6-0.2-3.7-0.2-3.7-0.2v8.1c0,0,0.4,1.7,2.7,1.7
		c-1.2,0-9.5,0-9.5,0s2.6-0.5,2.6-1.5s0-17.6,0-17.6S148.7,76.4,146.2,76.1z"/>
	<g id="Layer_37">
		<path class="st0" d="M153.1,86.4v-9.3c0,0-0.1-0.4,2.4-0.4s3.8,1.1,3.8,3.5s0,3.9,0,3.9S158.6,88.2,153.1,86.4z"/>
	</g>
</g>
<g id="O_1_">
	<path class="st1" d="M141.9,84.6c0.1,2.8,0,4.5,0,4.5s-0.7,8.7-9.1,8.7c-2.9,0-2.9,0-2.9,0s-8.5-0.3-9.1-9.5c-0.1-2.1,0-4.1,0-4.1
		s0.6-8.4,9.1-9c0,0,6-0.8,9,2.3C141.7,80.5,141.8,82.9,141.9,84.6z"/>
	<path class="st0" d="M131.4,76.1c0,0-5.7-0.2-5.8,10.3c-0.1,11.1,5.8,10.6,5.8,10.6s6,1.1,6.1-10.6
		C137.5,75.5,131.4,76.1,131.4,76.1z"/>
</g>
<g id="T_2_">
	<path class="st1" d="M98.1,75.8h18.7v7.8c0,0-1.2-7-7-7c0.1,2.6,0,18.4,0,18.4s1.2,1.9,3.4,2c-4.5-0.1-11.4,0-11.4,0
		s3.8-0.9,3.8-1.7s0-18.8,0-18.8s-7.5,0.1-7.5,7C98.1,80.7,98.1,75.8,98.1,75.8z"/>
</g>
<g id="I_1_">
	<path class="st1" d="M189.2,43.3h9.4c0,0-2.3,0.7-2.3,2.1s0,17.3,0,17.3s1.4,1.8,3,1.8c-2.2,0-10.1,0-10.1,0s2.3-1.3,2.3-2.1
		s0-17.2,0-17.2S190.6,43.3,189.2,43.3z"/>
</g>
<g id="A_2_">
	<path class="st1" d="M174.9,43.3h2.6l7.6,19.8c0,0,1.6,1.3,2.2,1.3c-2.3-0.1-9.9,0-9.9,0s3-0.5,2.7-1.5s-2.5-6.4-2.5-6.4h-6.7
		l-2,5.6c0,0,0.5,2.3,3.4,2.3c-2.1,0-6.9,0-6.9,0s2.1-1.3,2.5-2.1C168.4,61.6,174.9,43.3,174.9,43.3z"/>
	<polygon class="st0" points="171.1,55.8 174.1,47.5 177.3,55.8 	"/>
</g>
<g id="N_1_">
	<path class="st1" d="M143.4,43.3h5.6l11.2,13.8V44.9c0,0-1.1-1.4-3.4-1.7c3.7,0,6.8,0,6.8,0s-2.4,0.6-2.5,1.7s0,19.4,0,19.4h-1.7
		l-12.8-16.4v14.3c0,0,1.3,2.1,3.3,2.1c-2.8-0.1-6.4,0-6.4,0s2.3-1,2.4-2.2c0.1-1.1,0-17.5,0-17.5S144.7,43.5,143.4,43.3z"/>
</g>
<g id="_x27__1_">
	<path class="st1" d="M137.4,49.9c0,0-4.8-7.6,0-7.7S137.4,49.9,137.4,49.9z"/>
</g>
<g id="B_1_">
	<path class="st1" d="M112.5,43.3h12.4c0,0,5.1,0.4,5.2,4.4s-5.5,5.5-5.5,5.5s6.8,0.7,6.8,5.5s-2.1,5.6-4.5,5.7
		c-2.5,0.1-14.4,0-14.4,0s2.6-0.8,2.6-1.8s0-17.3,0-17.3S115,43.5,112.5,43.3z"/>
	<g id="Layer_36">
		<path class="st0" d="M119.7,53.1V44c0,0,5.2-0.9,5.2,3.9S123.1,53.2,119.7,53.1z"/>
		<path class="st0" d="M119.7,53.8v9.4c0,0,5.9,1.3,6-2.5c0.1-4-0.2-5-0.7-6C124.1,53.8,124.8,53.6,119.7,53.8z"/>
	</g>
</g>
<g id="E">
	<path class="st1" d="M204.5,10.2h16.3V17c0,0-1.1-5.8-3.8-5.8c-2.6,0-5.4,0-5.4,0v8.9c0,0,5.2,0.7,5.1-3.8c0.1,3.5,0,8.6,0,8.6
		s-1-4.2-5.2-4.2c0,2.3,0,9.2,0,9.2s0.3,1,3.6,0.9s6-4.9,6-6.8c0,2.5,0,7.3,0,7.3h-16.6c0,0,2.5-0.4,2.5-1.7c0-1.3,0-18.5,0-18.5
		S206.6,10.3,204.5,10.2z"/>
</g>
<g id="L_1_">
	<path class="st1" d="M183.4,10.2H194c0,0-2.8,0.3-2.8,1.4s0.2,18.2,0.2,18.2s0,1,2.7,1s6.8-4.6,6.8-7.3c0.1,2.7,0,7.8,0,7.8H184
		c0,0,2.4-0.6,2.4-1.8c0.1-1.1,0-17.8,0-17.8S184.8,10.5,183.4,10.2z"/>
</g>
<g id="P_1_">
	<path class="st1" d="M162.9,10.2h11.7c0,0,6-0.3,6,5.9s-5.8,6.6-10.6,6.7c-0.1,2.1,0,7.2,0,7.2s0.8,1.4,3.7,1.4
		c-6.1-0.1-10.8,0-10.8,0s2.6-0.6,2.6-2s0-17.1,0-17.1S164.8,10.4,162.9,10.2z"/>
	<path class="st0" d="M169.9,11.1v11.2c0,0,5.8,1.5,5.8-5.6S171.3,11.3,169.9,11.1z"/>
</g>
<g id="M_1_">
	<path class="st1" d="M132.9,10.2h7.7l5.6,14.5l6-14.5h7.3c0,0-2.9,0.3-2.9,2.5c0,1.9,0,16.6,0,16.6s0.1,2,2.9,2.1
		c-2.3,0.1-10.4,0-10.4,0s3.3-0.7,3.3-2.1c0-1.1,0-16.8,0-16.8l-7.7,19l-8.3-20.4v18c0,0,0.9,2.1,3,2.2c-3.1-0.2-6.5,0-6.5,0
		s2.4-0.7,2.5-2.3s0.1-16.7,0.1-16.7S135.2,10.5,132.9,10.2z"/>
</g>
<g id="E_2_">
	<path class="st1" d="M112,10.2h16.1v6.9c0,0,0.7-6.1-9.1-6.1c0,2.6,0,9.3,0,9.3s4.8,1.3,5-4c0.1,7.4,0.1,8.6,0.1,8.6
		s0.1-3.9-5.1-3.9c0,1.4,0,8.5,0,8.5s-0.3,1.7,4.8,1.1c1.7-0.3,5-4.6,5-6.4c0.1,2.5,0,7.2,0,7.2h-17c0,0,2.8-0.5,2.7-1.5
		c0-1,0-17.5,0-17.5S114.9,10.2,112,10.2z"/>
</g>
<g id="T">
	<path id="_x3C_Path_x3E_" class="st1" d="M89.8,17.9v-7.6H108v7.6c0,0,0-6.6-7.1-6.7c0,3.3,0,17.5,0,17.5s0.4,2.6,3.5,2.6
		c-5.9,0-11,0-11,0s3.2,0.2,3.1-2.6c-0.2-3.3,0-17.5,0-17.5S89.8,10.2,89.8,17.9z"/>
</g>
</svg>
