<?xml version="1.0" encoding="iso-8859-1"?>
<!-- Generator: Adobe Illustrator 19.0.0, SVG Export Plug-In . SVG Version: 6.00 Build 0)  -->
<svg version="1.1" id="Layer_1" xmlns="http://www.w3.org/2000/svg" xmlns:xlink="http://www.w3.org/1999/xlink" x="0px" y="0px"
	 viewBox="0 0 512 512" style="enable-background:new 0 0 512 512;" xml:space="preserve">
<g>
	<g>
		<path d="M505.6,167.2c-11.6-42-38.4-73.6-77.6-91.6C404.8,64.8,380.8,60,352,60c-13.6,0-26.8,1.2-39.6,2.4
			c7.2-20.8,9.6-43.6-2.8-50c-8-4.4-19.2,0.4-31.6,12.8C272.4,8.8,264.8,0,256,0c-9.6,0-17.6,10-22.8,28.4
			c-13.6-14.8-26-20.8-34.8-16c-12.4,6.4-9.6,28.8-2.8,49.6C184,60.8,172,60,160,60c-28.8,0-52.8,4.8-76,15.6
			c-38.8,18-65.6,49.6-77.6,91.6c-17.6,63.6,2,142,55.2,221.2C145.2,512,228.4,512,256,512c27.6,0,110.8,0,194.4-123.6
			C503.6,309.2,523.2,230.8,505.6,167.2z M202.4,19.2c4.8-2.4,16,2.8,30,20c0.8,1.2,2.4,1.6,4,1.2c1.6-0.4,2.8-1.6,2.8-3.2
			C243.6,17.2,250.8,8,256,8c4.8,0,11.6,8,16,26c0.4,1.6,1.6,2.4,2.8,2.8c1.6,0.4,2.8,0,4-1.2c12.8-14.4,22.4-18.4,26.8-16.4
			c5.6,3.2,6.8,19.6-2.4,44c-1.2,0-2.4,0.4-3.6,0.4c-15.2,1.6-29.6,3.2-43.6,3.2c-14,0-28-1.6-43.6-3.2c-2.8-0.4-5.2-0.4-8-0.8
			C195.6,38.4,196.8,22.4,202.4,19.2z M443.6,384C362.8,504,282.4,504,256,504c-26.4,0-106.8,0-187.6-120
			c-52-77.2-71.2-153.6-54-214.8c11.2-39.6,36.4-69.6,73.2-86.4c22-10,45.2-14.8,72.4-14.8c17.6,0,34.8,2,51.6,4
			c15.6,1.6,30,3.6,44.4,3.6c14.4,0,28.8-1.6,44.4-3.6c16.4-2,33.6-4,51.6-4c27.6,0,50.4,4.8,72.4,14.8
			c36.8,17.2,62.4,47.2,73.2,86.4C514.8,230.4,495.6,306.8,443.6,384z"/>
	</g>
</g>
<g>
	<g>
		<path d="M482.8,196.8c-0.4-2.8-2.4-4.4-4.4-4s-3.6,2.4-3.6,4.4c3.6,29.6-1.6,62.8-15.6,98.4c-0.8,2,0.4,4.4,2.4,5.2
			c0.4,0,0.8,0.4,1.6,0.4c1.6,0,3.2-0.8,3.6-2.4C481.2,262,486.4,227.6,482.8,196.8z"/>
	</g>
</g>
<g>
	<g>
		<path d="M184.8,459.2c-30-15.6-58.8-42.4-85.6-80c-2.4-3.6-5.2-7.2-7.6-11.2c-1.2-2-3.6-2.4-5.6-1.2s-2.4,3.6-1.2,5.6
			c2.8,4,5.2,7.6,8,11.2c27.6,38.8,57.6,66.4,88.4,82.4c0.4,0.4,1.2,0.4,2,0.4c1.6,0,2.8-0.8,3.6-2
			C187.6,462.8,186.8,460.4,184.8,459.2z"/>
	</g>
</g>
<g>
	<g>
		<path d="M465.2,144.4c-11.6-19.2-28.4-33.6-49.6-43.6c-2-0.8-4.4,0-5.2,2s0,4.4,2,5.2c19.6,9.2,35.2,22.8,46,40.4
			c0.8,1.6,2.4,2,3.6,2c0.8,0,1.6,0,2-0.4C466,148.8,466.4,146.4,465.2,144.4z"/>
	</g>
</g>
<g>
</g>
<g>
</g>
<g>
</g>
<g>
</g>
<g>
</g>
<g>
</g>
<g>
</g>
<g>
</g>
<g>
</g>
<g>
</g>
<g>
</g>
<g>
</g>
<g>
</g>
<g>
</g>
<g>
</g>
</svg>
