<?xml version="1.0" encoding="utf-8"?>
<!-- Generator: Adobe Illustrator 25.1.0, SVG Export Plug-In . SVG Version: 6.00 Build 0)  -->
<svg version="1.1" id="Layer_5" xmlns="http://www.w3.org/2000/svg" xmlns:xlink="http://www.w3.org/1999/xlink" x="0px" y="0px"
	 viewBox="0 0 300 300" style="enable-background:new 0 0 300 300;" xml:space="preserve">
<style type="text/css">
	.st0{fill:url(#SVGID_1_);stroke:#000000;stroke-width:5;stroke-miterlimit:10;}
	.st1{fill:url(#SVGID_2_);stroke:#042200;stroke-width:2;stroke-miterlimit:10;}
	.st2{fill:url(#SVGID_3_);stroke:#042200;stroke-width:2;stroke-miterlimit:10;}
	.st3{fill:url(#SVGID_4_);stroke:#042200;stroke-width:2;stroke-miterlimit:10;}
	.st4{fill:url(#SVGID_5_);stroke:#000000;stroke-width:3;stroke-miterlimit:10;}
	.st5{fill:url(#SVGID_6_);}
	.st6{fill:url(#SVGID_7_);stroke:#000000;stroke-width:3;stroke-miterlimit:10;}
	.st7{fill:url(#SVGID_8_);stroke:#370500;stroke-width:3;stroke-miterlimit:10;}
</style>
<radialGradient id="SVGID_1_" cx="140.0708" cy="154.4935" r="115.6007" fx="125.3727" fy="100.5222" gradientUnits="userSpaceOnUse">
	<stop  offset="0" style="stop-color:#710E1B"/>
	<stop  offset="0" style="stop-color:#A90D13"/>
	<stop  offset="0" style="stop-color:#B69C9E"/>
	<stop  offset="0.5617" style="stop-color:#930012"/>
	<stop  offset="0.9722" style="stop-color:#8B0717"/>
</radialGradient>
<path class="st0" d="M87.8,59.8c0,0,62.5-39.3,112.8-8.6c49.9,30.4,79.5,116.5,30.8,168.9s-120.8,72.7-180,12.9S39.7,85.1,87.8,59.8
	z"/>
<linearGradient id="SVGID_2_" gradientUnits="userSpaceOnUse" x1="5.0639" y1="85.6364" x2="81.7874" y2="85.6364" gradientTransform="matrix(0.6286 1.0997 -1.0111 0.7138 102.4913 -29.6962)">
	<stop  offset="0" style="stop-color:#710E1B"/>
	<stop  offset="0" style="stop-color:#A90D13"/>
	<stop  offset="0" style="stop-color:#013700"/>
	<stop  offset="0.6627" style="stop-color:#297A15"/>
	<stop  offset="0.9722" style="stop-color:#00D449"/>
</linearGradient>
<path class="st1" d="M56.1,125.6l8.7-2.4c0,0,16.7-59.7-25.3-86.3C25.6,31.8,4.9,45.5,5.9,47.5S-1.6,76,56.1,125.6z"/>
<linearGradient id="SVGID_3_" gradientUnits="userSpaceOnUse" x1="39.2074" y1="59.0397" x2="115.9309" y2="59.0397" gradientTransform="matrix(1.0558 0.8771 -0.8956 1.0466 59.8393 -64.4213)">
	<stop  offset="0" style="stop-color:#710E1B"/>
	<stop  offset="0" style="stop-color:#A90D13"/>
	<stop  offset="0" style="stop-color:#013700"/>
	<stop  offset="0.6627" style="stop-color:#297A15"/>
	<stop  offset="0.9722" style="stop-color:#00D449"/>
</linearGradient>
<path class="st2" d="M118.2,107l8.9-5.3c0,0-0.7-64.8-56.1-76.9C54,24.4,35.3,45,37.1,46.6C38.9,48.2,38,77.3,118.2,107z"/>
<linearGradient id="SVGID_4_" gradientUnits="userSpaceOnUse" x1="79.132" y1="18.9736" x2="155.8555" y2="18.9736" gradientTransform="matrix(1.2579 0.1239 -0.1727 1.2638 -26.3007 -9.596)">
	<stop  offset="0" style="stop-color:#710E1B"/>
	<stop  offset="0" style="stop-color:#A90D13"/>
	<stop  offset="0" style="stop-color:#013700"/>
	<stop  offset="0.6627" style="stop-color:#297A15"/>
	<stop  offset="0.9722" style="stop-color:#00D449"/>
</linearGradient>
<path class="st3" d="M161.8,45.5l4.3-8.6c0,0-32.9-49.2-82-29.7c-13.4,8.5-17.7,33.9-15.5,34.2C70.8,41.6,84.6,64.4,161.8,45.5z"/>
<g id="Layer_4">
	
		<radialGradient id="SVGID_5_" cx="200.5692" cy="259.3845" r="32.0503" fx="180.7754" fy="234.3863" gradientUnits="userSpaceOnUse">
		<stop  offset="0" style="stop-color:#710E1B"/>
		<stop  offset="0.3021" style="stop-color:#320403"/>
		<stop  offset="0.4534" style="stop-color:#803D38"/>
		<stop  offset="0.5678" style="stop-color:#7D5045"/>
		<stop  offset="0.8617" style="stop-color:#CD8C61"/>
		<stop  offset="0.9879" style="stop-color:#D2A38B"/>
	</radialGradient>
	<path class="st4" d="M165.2,263.4c0,0,0.7,13.6,0,15.6c-0.6,1.8,1.1,11.1,8.4,6.2c3.8-2.5,7.9-13.6,7.9-16.4s1.8-0.6,1.8-0.6
		s9.8,12.9,10.9,13.5c1.1,0.6,7,4.6,10.5,2.9s5.1-20.2,0-28.6c4.3,0.7,17.3,5.2,30.3-2.2c6.2-3.8-5.8-6.3-5.8-6.3s-6.9-0.4-13.9-7.7
		s-24.3-7.5-24.3-7.5l-26.8,20.9L165.2,263.4z"/>
</g>
<g id="Layer_3">
	<linearGradient id="SVGID_6_" gradientUnits="userSpaceOnUse" x1="162.3859" y1="241.7677" x2="162.3859" y2="241.7677">
		<stop  offset="0" style="stop-color:#710E1B"/>
		<stop  offset="0" style="stop-color:#A90D13"/>
		<stop  offset="0" style="stop-color:#B55253"/>
		<stop  offset="0.4062" style="stop-color:#7C2228"/>
		<stop  offset="0.8456" style="stop-color:#7D4938"/>
		<stop  offset="0.9722" style="stop-color:#A57F6A"/>
	</linearGradient>
	<path class="st5" d="M162.4,241.8"/>
	<linearGradient id="SVGID_7_" gradientUnits="userSpaceOnUse" x1="150.0532" y1="243.8932" x2="232.0346" y2="243.8932">
		<stop  offset="0" style="stop-color:#710E1B"/>
		<stop  offset="0" style="stop-color:#A90D13"/>
		<stop  offset="0" style="stop-color:#733D38"/>
		<stop  offset="0.4062" style="stop-color:#815045"/>
		<stop  offset="0.8448" style="stop-color:#CD8C61"/>
		<stop  offset="0.9722" style="stop-color:#D3A590"/>
	</linearGradient>
	<path class="st6" d="M166.5,240.9l-3.8,15c0,0-7.4,0.4-9.7,2.1c-2.2,1.7-5.6,4.9,0.7,7.2c6.3,2.2,10,3.5,15.2-1.3
		c5.2-4.8,7.9-15.3,8.1-16.6c0.3-1.3,0-2,0-2s1,1.1,7.4-1.3c6.5-2.4,15-8.6,15.7-9.4s3.2,0,3.2,0l9.5,5.1c0,0,9,0.4,12.8-5.4
		c3.8-5.8,5.8-9.6,6.2-9.7c0.4-0.1,0.8-6.6-6.5-2.9c-7.3,3.6-12.2,8.1-12.2,8.1l-6,1.5l-11.1-10.8l-18.4,1.7L166.5,240.9z"/>
</g>
<linearGradient id="SVGID_8_" gradientUnits="userSpaceOnUse" x1="151.5206" y1="233.6866" x2="207.144" y2="233.6866">
	<stop  offset="0" style="stop-color:#710E1B"/>
	<stop  offset="0" style="stop-color:#A90D13"/>
	<stop  offset="0" style="stop-color:#B55253"/>
	<stop  offset="0.4062" style="stop-color:#7C2228"/>
	<stop  offset="0.8456" style="stop-color:#7D4938"/>
	<stop  offset="0.9722" style="stop-color:#A57F6A"/>
</linearGradient>
<path class="st7" d="M154.2,248.9c0,0,5.8-2.2,8.4,7c8.4-2.2,15.6-10.8,10.4-19.1c4.5,5.2,8.3,11.9,9.1-7.9c0.4-4.8,3.8-6.3,8.6-2.2
	c4.8,3.9,7.4,4.5,7.4,4.5s4.2-2.5,7.4-0.7c1.5,1,1.5,1,1.5,1s-5.5-6.3-2.9-12.6c-2.7-4.1-12.1-13.8-33.8-1.4
	C155.8,226.1,146.7,244.3,154.2,248.9z"/>
</svg>
